<mxfile host="app.diagrams.net" agent="Mozilla/5.0 (Windows NT 10.0; Win64; x64) AppleWebKit/537.36 (KHTML, like Gecko) Chrome/127.0.0.0 Safari/537.36" version="26.0.6">
  <diagram name="第 1 页" id="NmsbRxcRpaXrUM939nCn">
    <mxGraphModel dx="1195" dy="650" grid="1" gridSize="10" guides="1" tooltips="1" connect="1" arrows="1" fold="1" page="1" pageScale="1" pageWidth="827" pageHeight="1169" math="0" shadow="0">
      <root>
        <mxCell id="0" />
        <mxCell id="1" parent="0" />
        <mxCell id="_t62vweFFc6r9jnO2GWr-74" value="" style="rounded=1;whiteSpace=wrap;html=1;" vertex="1" parent="1">
          <mxGeometry x="680" y="700" width="290" height="110" as="geometry" />
        </mxCell>
        <mxCell id="_t62vweFFc6r9jnO2GWr-50" value="" style="group" vertex="1" connectable="0" parent="1">
          <mxGeometry x="80" y="560" width="740" height="110" as="geometry" />
        </mxCell>
        <mxCell id="_t62vweFFc6r9jnO2GWr-38" value="" style="rounded=1;whiteSpace=wrap;html=1;" vertex="1" parent="_t62vweFFc6r9jnO2GWr-50">
          <mxGeometry width="740" height="110" as="geometry" />
        </mxCell>
        <mxCell id="_t62vweFFc6r9jnO2GWr-31" value="" style="edgeStyle=orthogonalEdgeStyle;rounded=0;orthogonalLoop=1;jettySize=auto;html=1;" edge="1" parent="_t62vweFFc6r9jnO2GWr-50" source="_t62vweFFc6r9jnO2GWr-29" target="_t62vweFFc6r9jnO2GWr-30">
          <mxGeometry relative="1" as="geometry" />
        </mxCell>
        <mxCell id="_t62vweFFc6r9jnO2GWr-29" value="&lt;strong style=&quot;color: rgb(64, 64, 64); font-family: Inter, system-ui, -apple-system, BlinkMacSystemFont, &amp;quot;Segoe UI&amp;quot;, Roboto, &amp;quot;Noto Sans&amp;quot;, Ubuntu, Cantarell, &amp;quot;Helvetica Neue&amp;quot;, Oxygen, &amp;quot;Open Sans&amp;quot;, sans-serif; text-align: left;&quot;&gt;App.onLaunch&lt;/strong&gt;&lt;div&gt;&lt;strong style=&quot;color: rgb(64, 64, 64); font-family: Inter, system-ui, -apple-system, BlinkMacSystemFont, &amp;quot;Segoe UI&amp;quot;, Roboto, &amp;quot;Noto Sans&amp;quot;, Ubuntu, Cantarell, &amp;quot;Helvetica Neue&amp;quot;, Oxygen, &amp;quot;Open Sans&amp;quot;, sans-serif; text-align: left;&quot;&gt;初始化，全局执行一次&lt;/strong&gt;&lt;/div&gt;" style="rounded=1;whiteSpace=wrap;html=1;fontSize=11;fillColor=#d5e8d4;strokeColor=#82b366;" vertex="1" parent="_t62vweFFc6r9jnO2GWr-50">
          <mxGeometry x="10" y="40" width="120" height="60" as="geometry" />
        </mxCell>
        <mxCell id="_t62vweFFc6r9jnO2GWr-37" value="" style="edgeStyle=orthogonalEdgeStyle;rounded=0;orthogonalLoop=1;jettySize=auto;html=1;" edge="1" parent="_t62vweFFc6r9jnO2GWr-50" source="_t62vweFFc6r9jnO2GWr-30" target="_t62vweFFc6r9jnO2GWr-33">
          <mxGeometry relative="1" as="geometry" />
        </mxCell>
        <mxCell id="_t62vweFFc6r9jnO2GWr-30" value="&lt;strong style=&quot;color: rgb(64, 64, 64); font-family: Inter, system-ui, -apple-system, BlinkMacSystemFont, &amp;quot;Segoe UI&amp;quot;, Roboto, &amp;quot;Noto Sans&amp;quot;, Ubuntu, Cantarell, &amp;quot;Helvetica Neue&amp;quot;, Oxygen, &amp;quot;Open Sans&amp;quot;, sans-serif; text-align: left;&quot;&gt;&lt;strong style=&quot;color: rgb(64, 64, 64);&quot;&gt;App.&lt;/strong&gt;onShow&lt;/strong&gt;&lt;div&gt;&lt;strong style=&quot;color: rgb(64, 64, 64); font-family: Inter, system-ui, -apple-system, BlinkMacSystemFont, &amp;quot;Segoe UI&amp;quot;, Roboto, &amp;quot;Noto Sans&amp;quot;, Ubuntu, Cantarell, &amp;quot;Helvetica Neue&amp;quot;, Oxygen, &amp;quot;Open Sans&amp;quot;, sans-serif; text-align: left;&quot;&gt;启动时/后台进入时&lt;/strong&gt;&lt;/div&gt;" style="rounded=1;whiteSpace=wrap;html=1;fontSize=11;fillColor=#d5e8d4;strokeColor=#82b366;" vertex="1" parent="_t62vweFFc6r9jnO2GWr-50">
          <mxGeometry x="160" y="40" width="120" height="60" as="geometry" />
        </mxCell>
        <mxCell id="_t62vweFFc6r9jnO2GWr-32" value="" style="edgeStyle=orthogonalEdgeStyle;rounded=0;orthogonalLoop=1;jettySize=auto;html=1;" edge="1" parent="_t62vweFFc6r9jnO2GWr-50" source="_t62vweFFc6r9jnO2GWr-33" target="_t62vweFFc6r9jnO2GWr-35">
          <mxGeometry relative="1" as="geometry" />
        </mxCell>
        <mxCell id="_t62vweFFc6r9jnO2GWr-33" value="&lt;strong style=&quot;color: rgb(64, 64, 64); font-family: Inter, system-ui, -apple-system, BlinkMacSystemFont, &amp;quot;Segoe UI&amp;quot;, Roboto, &amp;quot;Noto Sans&amp;quot;, Ubuntu, Cantarell, &amp;quot;Helvetica Neue&amp;quot;, Oxygen, &amp;quot;Open Sans&amp;quot;, sans-serif; text-align: left;&quot;&gt;Page.onLoad&lt;/strong&gt;&lt;div style=&quot;text-align: left;&quot;&gt;&lt;font face=&quot;Inter, system-ui, -apple-system, BlinkMacSystemFont, Segoe UI, Roboto, Noto Sans, Ubuntu, Cantarell, Helvetica Neue, Oxygen, Open Sans, sans-serif&quot; color=&quot;#404040&quot;&gt;&lt;b&gt;加载完成触发&lt;/b&gt;&lt;/font&gt;&lt;/div&gt;" style="rounded=1;whiteSpace=wrap;html=1;fontSize=11;fillColor=#fff2cc;strokeColor=#d6b656;" vertex="1" parent="_t62vweFFc6r9jnO2GWr-50">
          <mxGeometry x="310" y="40" width="120" height="60" as="geometry" />
        </mxCell>
        <mxCell id="_t62vweFFc6r9jnO2GWr-34" value="" style="edgeStyle=orthogonalEdgeStyle;rounded=0;orthogonalLoop=1;jettySize=auto;html=1;" edge="1" parent="_t62vweFFc6r9jnO2GWr-50" source="_t62vweFFc6r9jnO2GWr-35" target="_t62vweFFc6r9jnO2GWr-36">
          <mxGeometry relative="1" as="geometry" />
        </mxCell>
        <mxCell id="_t62vweFFc6r9jnO2GWr-35" value="&lt;strong style=&quot;color: rgb(64, 64, 64); font-family: Inter, system-ui, -apple-system, BlinkMacSystemFont, &amp;quot;Segoe UI&amp;quot;, Roboto, &amp;quot;Noto Sans&amp;quot;, Ubuntu, Cantarell, &amp;quot;Helvetica Neue&amp;quot;, Oxygen, &amp;quot;Open Sans&amp;quot;, sans-serif; text-align: left;&quot;&gt;&lt;strong style=&quot;color: rgb(64, 64, 64);&quot;&gt;Page.&lt;/strong&gt;onShow&lt;/strong&gt;&lt;div style=&quot;text-align: left;&quot;&gt;&lt;font face=&quot;Inter, system-ui, -apple-system, BlinkMacSystemFont, Segoe UI, Roboto, Noto Sans, Ubuntu, Cantarell, Helvetica Neue, Oxygen, Open Sans, sans-serif&quot; color=&quot;#404040&quot;&gt;&lt;b&gt;页面显示时触发&lt;/b&gt;&lt;/font&gt;&lt;/div&gt;" style="whiteSpace=wrap;html=1;fontSize=11;rounded=1;fillColor=#fff2cc;strokeColor=#d6b656;" vertex="1" parent="_t62vweFFc6r9jnO2GWr-50">
          <mxGeometry x="460" y="40" width="120" height="60" as="geometry" />
        </mxCell>
        <mxCell id="_t62vweFFc6r9jnO2GWr-36" value="&lt;strong style=&quot;forced-color-adjust: none; font-size: 11px; font-style: normal; font-variant-ligatures: normal; font-variant-caps: normal; letter-spacing: normal; orphans: 2; text-indent: 0px; text-transform: none; widows: 2; word-spacing: 0px; -webkit-text-stroke-width: 0px; white-space: normal; text-decoration-thickness: initial; text-decoration-style: initial; text-decoration-color: initial; color: light-dark(rgb(64, 64, 64), rgb(182, 182, 182)); font-family: Inter, system-ui, -apple-system, BlinkMacSystemFont, &amp;quot;Segoe UI&amp;quot;, Roboto, &amp;quot;Noto Sans&amp;quot;, Ubuntu, Cantarell, &amp;quot;Helvetica Neue&amp;quot;, Oxygen, &amp;quot;Open Sans&amp;quot;, sans-serif; text-align: left;&quot;&gt;&lt;strong style=&quot;forced-color-adjust: none; color: rgb(64, 64, 64);&quot;&gt;Page.&lt;/strong&gt;onReady&lt;/strong&gt;&lt;div style=&quot;forced-color-adjust: none; font-size: 11px; font-style: normal; font-variant-ligatures: normal; font-variant-caps: normal; letter-spacing: normal; orphans: 2; text-indent: 0px; text-transform: none; widows: 2; word-spacing: 0px; -webkit-text-stroke-width: 0px; white-space: normal; text-decoration-thickness: initial; text-decoration-style: initial; text-decoration-color: initial; text-align: left; color: rgb(0, 0, 0);&quot;&gt;&lt;font face=&quot;Inter, system-ui, -apple-system, BlinkMacSystemFont, Segoe UI, Roboto, Noto Sans, Ubuntu, Cantarell, Helvetica Neue, Oxygen, Open Sans, sans-serif&quot; color=&quot;#404040&quot;&gt;&lt;b&gt;初次渲染完触发&lt;/b&gt;&lt;/font&gt;&lt;/div&gt;" style="whiteSpace=wrap;html=1;fontSize=11;rounded=1;fillColor=#fff2cc;strokeColor=#d6b656;labelBackgroundColor=#FFF2CC;" vertex="1" parent="_t62vweFFc6r9jnO2GWr-50">
          <mxGeometry x="610" y="40" width="120" height="60" as="geometry" />
        </mxCell>
        <mxCell id="_t62vweFFc6r9jnO2GWr-39" value="启动时：" style="text;html=1;align=center;verticalAlign=middle;whiteSpace=wrap;rounded=0;fontStyle=1" vertex="1" parent="_t62vweFFc6r9jnO2GWr-50">
          <mxGeometry x="10" y="10" width="60" height="30" as="geometry" />
        </mxCell>
        <mxCell id="_t62vweFFc6r9jnO2GWr-51" value="" style="group" vertex="1" connectable="0" parent="1">
          <mxGeometry x="80" y="700" width="590" height="110" as="geometry" />
        </mxCell>
        <mxCell id="_t62vweFFc6r9jnO2GWr-48" value="" style="rounded=1;whiteSpace=wrap;html=1;" vertex="1" parent="_t62vweFFc6r9jnO2GWr-51">
          <mxGeometry width="590" height="110" as="geometry" />
        </mxCell>
        <mxCell id="_t62vweFFc6r9jnO2GWr-40" value="" style="edgeStyle=orthogonalEdgeStyle;rounded=0;orthogonalLoop=1;jettySize=auto;html=1;" edge="1" parent="_t62vweFFc6r9jnO2GWr-51" source="_t62vweFFc6r9jnO2GWr-41" target="_t62vweFFc6r9jnO2GWr-43">
          <mxGeometry relative="1" as="geometry" />
        </mxCell>
        <mxCell id="_t62vweFFc6r9jnO2GWr-41" value="&lt;strong style=&quot;color: rgb(64, 64, 64); font-family: Inter, system-ui, -apple-system, BlinkMacSystemFont, &amp;quot;Segoe UI&amp;quot;, Roboto, &amp;quot;Noto Sans&amp;quot;, Ubuntu, Cantarell, &amp;quot;Helvetica Neue&amp;quot;, Oxygen, &amp;quot;Open Sans&amp;quot;, sans-serif; text-align: left;&quot;&gt;newPage.onLoad&lt;/strong&gt;&lt;div style=&quot;text-align: left;&quot;&gt;&lt;font face=&quot;Inter, system-ui, -apple-system, BlinkMacSystemFont, Segoe UI, Roboto, Noto Sans, Ubuntu, Cantarell, Helvetica Neue, Oxygen, Open Sans, sans-serif&quot; color=&quot;#404040&quot;&gt;&lt;b&gt;加载完成触发&lt;/b&gt;&lt;/font&gt;&lt;/div&gt;" style="rounded=1;whiteSpace=wrap;html=1;fontSize=11;fillColor=#fff2cc;strokeColor=#d6b656;" vertex="1" parent="_t62vweFFc6r9jnO2GWr-51">
          <mxGeometry x="160" y="40" width="120" height="60" as="geometry" />
        </mxCell>
        <mxCell id="_t62vweFFc6r9jnO2GWr-42" value="" style="edgeStyle=orthogonalEdgeStyle;rounded=0;orthogonalLoop=1;jettySize=auto;html=1;" edge="1" parent="_t62vweFFc6r9jnO2GWr-51" source="_t62vweFFc6r9jnO2GWr-43" target="_t62vweFFc6r9jnO2GWr-45">
          <mxGeometry relative="1" as="geometry" />
        </mxCell>
        <mxCell id="_t62vweFFc6r9jnO2GWr-43" value="&lt;strong style=&quot;color: rgb(64, 64, 64); font-family: Inter, system-ui, -apple-system, BlinkMacSystemFont, &amp;quot;Segoe UI&amp;quot;, Roboto, &amp;quot;Noto Sans&amp;quot;, Ubuntu, Cantarell, &amp;quot;Helvetica Neue&amp;quot;, Oxygen, &amp;quot;Open Sans&amp;quot;, sans-serif; text-align: left;&quot;&gt;&lt;strong style=&quot;color: rgb(64, 64, 64);&quot;&gt;&lt;strong style=&quot;color: rgb(64, 64, 64);&quot;&gt;new&lt;/strong&gt;Page.&lt;/strong&gt;onShow&lt;/strong&gt;&lt;div style=&quot;text-align: left;&quot;&gt;&lt;font face=&quot;Inter, system-ui, -apple-system, BlinkMacSystemFont, Segoe UI, Roboto, Noto Sans, Ubuntu, Cantarell, Helvetica Neue, Oxygen, Open Sans, sans-serif&quot; color=&quot;#404040&quot;&gt;&lt;b&gt;页面显示时触发&lt;/b&gt;&lt;/font&gt;&lt;/div&gt;" style="whiteSpace=wrap;html=1;fontSize=11;rounded=1;fillColor=#fff2cc;strokeColor=#d6b656;" vertex="1" parent="_t62vweFFc6r9jnO2GWr-51">
          <mxGeometry x="310" y="40" width="120" height="60" as="geometry" />
        </mxCell>
        <mxCell id="_t62vweFFc6r9jnO2GWr-45" value="&lt;strong style=&quot;forced-color-adjust: none; font-size: 11px; font-style: normal; font-variant-ligatures: normal; font-variant-caps: normal; letter-spacing: normal; orphans: 2; text-indent: 0px; text-transform: none; widows: 2; word-spacing: 0px; -webkit-text-stroke-width: 0px; white-space: normal; text-decoration-thickness: initial; text-decoration-style: initial; text-decoration-color: initial; color: light-dark(rgb(64, 64, 64), rgb(182, 182, 182)); font-family: Inter, system-ui, -apple-system, BlinkMacSystemFont, &amp;quot;Segoe UI&amp;quot;, Roboto, &amp;quot;Noto Sans&amp;quot;, Ubuntu, Cantarell, &amp;quot;Helvetica Neue&amp;quot;, Oxygen, &amp;quot;Open Sans&amp;quot;, sans-serif; text-align: left;&quot;&gt;&lt;strong style=&quot;forced-color-adjust: none; color: rgb(64, 64, 64);&quot;&gt;&lt;strong style=&quot;color: rgb(64, 64, 64);&quot;&gt;new&lt;/strong&gt;Page.&lt;/strong&gt;onReady&lt;/strong&gt;&lt;div style=&quot;forced-color-adjust: none; font-size: 11px; font-style: normal; font-variant-ligatures: normal; font-variant-caps: normal; letter-spacing: normal; orphans: 2; text-indent: 0px; text-transform: none; widows: 2; word-spacing: 0px; -webkit-text-stroke-width: 0px; white-space: normal; text-decoration-thickness: initial; text-decoration-style: initial; text-decoration-color: initial; text-align: left; color: rgb(0, 0, 0);&quot;&gt;&lt;font face=&quot;Inter, system-ui, -apple-system, BlinkMacSystemFont, Segoe UI, Roboto, Noto Sans, Ubuntu, Cantarell, Helvetica Neue, Oxygen, Open Sans, sans-serif&quot; color=&quot;#404040&quot;&gt;&lt;b style=&quot;&quot;&gt;初次渲染完触发&lt;/b&gt;&lt;/font&gt;&lt;/div&gt;" style="whiteSpace=wrap;html=1;fontSize=11;rounded=1;fillColor=#fff2cc;strokeColor=#d6b656;labelBackgroundColor=#FFF2CC;" vertex="1" parent="_t62vweFFc6r9jnO2GWr-51">
          <mxGeometry x="460" y="40" width="120" height="60" as="geometry" />
        </mxCell>
        <mxCell id="_t62vweFFc6r9jnO2GWr-47" value="" style="edgeStyle=orthogonalEdgeStyle;rounded=0;orthogonalLoop=1;jettySize=auto;html=1;" edge="1" parent="_t62vweFFc6r9jnO2GWr-51" source="_t62vweFFc6r9jnO2GWr-46" target="_t62vweFFc6r9jnO2GWr-41">
          <mxGeometry relative="1" as="geometry" />
        </mxCell>
        <mxCell id="_t62vweFFc6r9jnO2GWr-46" value="&lt;strong style=&quot;color: light-dark(rgb(64, 64, 64), rgb(182, 182, 182)); font-family: Inter, system-ui, -apple-system, BlinkMacSystemFont, &amp;quot;Segoe UI&amp;quot;, Roboto, &amp;quot;Noto Sans&amp;quot;, Ubuntu, Cantarell, &amp;quot;Helvetica Neue&amp;quot;, Oxygen, &amp;quot;Open Sans&amp;quot;, sans-serif; text-align: left;&quot;&gt;&lt;strong style=&quot;color: rgb(64, 64, 64);&quot;&gt;curPage.&lt;/strong&gt;onHide&lt;/strong&gt;&lt;div style=&quot;color: rgb(0, 0, 0); text-align: left;&quot;&gt;&lt;font face=&quot;Inter, system-ui, -apple-system, BlinkMacSystemFont, Segoe UI, Roboto, Noto Sans, Ubuntu, Cantarell, Helvetica Neue, Oxygen, Open Sans, sans-serif&quot;&gt;&lt;b&gt;当前页离开&lt;/b&gt;&lt;/font&gt;&lt;/div&gt;" style="whiteSpace=wrap;html=1;fontSize=11;rounded=1;fillColor=#fff2cc;strokeColor=#d6b656;labelBackgroundColor=#FFF2CC;" vertex="1" parent="_t62vweFFc6r9jnO2GWr-51">
          <mxGeometry x="10" y="40" width="120" height="60" as="geometry" />
        </mxCell>
        <mxCell id="_t62vweFFc6r9jnO2GWr-49" value="页面跳转：" style="text;html=1;align=center;verticalAlign=middle;whiteSpace=wrap;rounded=0;fontStyle=1" vertex="1" parent="_t62vweFFc6r9jnO2GWr-51">
          <mxGeometry x="10" y="10" width="70" height="30" as="geometry" />
        </mxCell>
        <mxCell id="_t62vweFFc6r9jnO2GWr-69" value="" style="group" vertex="1" connectable="0" parent="1">
          <mxGeometry x="80" y="840" width="290" height="110" as="geometry" />
        </mxCell>
        <mxCell id="_t62vweFFc6r9jnO2GWr-53" value="" style="rounded=1;whiteSpace=wrap;html=1;" vertex="1" parent="_t62vweFFc6r9jnO2GWr-69">
          <mxGeometry width="290" height="110" as="geometry" />
        </mxCell>
        <mxCell id="_t62vweFFc6r9jnO2GWr-59" value="" style="edgeStyle=orthogonalEdgeStyle;rounded=0;orthogonalLoop=1;jettySize=auto;html=1;" edge="1" parent="_t62vweFFc6r9jnO2GWr-69" source="_t62vweFFc6r9jnO2GWr-60">
          <mxGeometry relative="1" as="geometry">
            <mxPoint x="160" y="70" as="targetPoint" />
          </mxGeometry>
        </mxCell>
        <mxCell id="_t62vweFFc6r9jnO2GWr-60" value="&lt;strong style=&quot;color: light-dark(rgb(64, 64, 64), rgb(182, 182, 182)); font-family: Inter, system-ui, -apple-system, BlinkMacSystemFont, &amp;quot;Segoe UI&amp;quot;, Roboto, &amp;quot;Noto Sans&amp;quot;, Ubuntu, Cantarell, &amp;quot;Helvetica Neue&amp;quot;, Oxygen, &amp;quot;Open Sans&amp;quot;, sans-serif; text-align: left;&quot;&gt;&lt;strong style=&quot;color: rgb(64, 64, 64);&quot;&gt;Page.&lt;/strong&gt;onHide&lt;/strong&gt;&lt;div style=&quot;color: rgb(0, 0, 0); text-align: left;&quot;&gt;&lt;font face=&quot;Inter, system-ui, -apple-system, BlinkMacSystemFont, Segoe UI, Roboto, Noto Sans, Ubuntu, Cantarell, Helvetica Neue, Oxygen, Open Sans, sans-serif&quot;&gt;&lt;b&gt;当前页&lt;/b&gt;&lt;/font&gt;&lt;/div&gt;" style="whiteSpace=wrap;html=1;fontSize=11;rounded=1;fillColor=#fff2cc;strokeColor=#d6b656;labelBackgroundColor=#FFF2CC;" vertex="1" parent="_t62vweFFc6r9jnO2GWr-69">
          <mxGeometry x="10" y="40" width="120" height="60" as="geometry" />
        </mxCell>
        <mxCell id="_t62vweFFc6r9jnO2GWr-61" value="进入后台：" style="text;html=1;align=center;verticalAlign=middle;whiteSpace=wrap;rounded=0;fontStyle=1" vertex="1" parent="_t62vweFFc6r9jnO2GWr-69">
          <mxGeometry x="10" y="10" width="70" height="30" as="geometry" />
        </mxCell>
        <mxCell id="_t62vweFFc6r9jnO2GWr-63" value="&lt;strong style=&quot;color: rgb(64, 64, 64); font-family: Inter, system-ui, -apple-system, BlinkMacSystemFont, &amp;quot;Segoe UI&amp;quot;, Roboto, &amp;quot;Noto Sans&amp;quot;, Ubuntu, Cantarell, &amp;quot;Helvetica Neue&amp;quot;, Oxygen, &amp;quot;Open Sans&amp;quot;, sans-serif; text-align: left;&quot;&gt;&lt;strong style=&quot;color: rgb(64, 64, 64);&quot;&gt;App.&lt;/strong&gt;onHide&lt;/strong&gt;&lt;div&gt;&lt;strong style=&quot;color: rgb(64, 64, 64); font-family: Inter, system-ui, -apple-system, BlinkMacSystemFont, &amp;quot;Segoe UI&amp;quot;, Roboto, &amp;quot;Noto Sans&amp;quot;, Ubuntu, Cantarell, &amp;quot;Helvetica Neue&amp;quot;, Oxygen, &amp;quot;Open Sans&amp;quot;, sans-serif; text-align: left;&quot;&gt;进入&lt;/strong&gt;&lt;strong style=&quot;background-color: transparent; color: rgb(64, 64, 64); font-family: Inter, system-ui, -apple-system, BlinkMacSystemFont, &amp;quot;Segoe UI&amp;quot;, Roboto, &amp;quot;Noto Sans&amp;quot;, Ubuntu, Cantarell, &amp;quot;Helvetica Neue&amp;quot;, Oxygen, &amp;quot;Open Sans&amp;quot;, sans-serif; text-align: left;&quot;&gt;后台&lt;/strong&gt;&lt;strong style=&quot;background-color: transparent; color: rgb(64, 64, 64); font-family: Inter, system-ui, -apple-system, BlinkMacSystemFont, &amp;quot;Segoe UI&amp;quot;, Roboto, &amp;quot;Noto Sans&amp;quot;, Ubuntu, Cantarell, &amp;quot;Helvetica Neue&amp;quot;, Oxygen, &amp;quot;Open Sans&amp;quot;, sans-serif; text-align: left;&quot;&gt;时&lt;/strong&gt;&lt;/div&gt;" style="whiteSpace=wrap;html=1;fontSize=11;rounded=1;fillColor=#d5e8d4;strokeColor=#82b366;" vertex="1" parent="_t62vweFFc6r9jnO2GWr-69">
          <mxGeometry x="160" y="40" width="120" height="60" as="geometry" />
        </mxCell>
        <mxCell id="_t62vweFFc6r9jnO2GWr-72" value="" style="group" vertex="1" connectable="0" parent="1">
          <mxGeometry x="380" y="840" width="290" height="110" as="geometry" />
        </mxCell>
        <mxCell id="_t62vweFFc6r9jnO2GWr-64" value="" style="rounded=1;whiteSpace=wrap;html=1;" vertex="1" parent="_t62vweFFc6r9jnO2GWr-72">
          <mxGeometry width="290" height="110" as="geometry" />
        </mxCell>
        <mxCell id="_t62vweFFc6r9jnO2GWr-65" value="" style="edgeStyle=orthogonalEdgeStyle;rounded=0;orthogonalLoop=1;jettySize=auto;html=1;" edge="1" parent="_t62vweFFc6r9jnO2GWr-72">
          <mxGeometry relative="1" as="geometry">
            <mxPoint x="160" y="70" as="targetPoint" />
            <mxPoint x="130.00000000000023" y="70" as="sourcePoint" />
          </mxGeometry>
        </mxCell>
        <mxCell id="_t62vweFFc6r9jnO2GWr-67" value="后台返回：" style="text;html=1;align=center;verticalAlign=middle;whiteSpace=wrap;rounded=0;fontStyle=1" vertex="1" parent="_t62vweFFc6r9jnO2GWr-72">
          <mxGeometry x="10" y="10" width="70" height="30" as="geometry" />
        </mxCell>
        <mxCell id="_t62vweFFc6r9jnO2GWr-70" value="&lt;strong style=&quot;color: rgb(64, 64, 64); font-family: Inter, system-ui, -apple-system, BlinkMacSystemFont, &amp;quot;Segoe UI&amp;quot;, Roboto, &amp;quot;Noto Sans&amp;quot;, Ubuntu, Cantarell, &amp;quot;Helvetica Neue&amp;quot;, Oxygen, &amp;quot;Open Sans&amp;quot;, sans-serif; text-align: left;&quot;&gt;&lt;strong style=&quot;color: rgb(64, 64, 64);&quot;&gt;App.&lt;/strong&gt;onShow&lt;/strong&gt;&lt;div&gt;&lt;strong style=&quot;color: rgb(64, 64, 64); font-family: Inter, system-ui, -apple-system, BlinkMacSystemFont, &amp;quot;Segoe UI&amp;quot;, Roboto, &amp;quot;Noto Sans&amp;quot;, Ubuntu, Cantarell, &amp;quot;Helvetica Neue&amp;quot;, Oxygen, &amp;quot;Open Sans&amp;quot;, sans-serif; text-align: left;&quot;&gt;启动时/后台进入时&lt;/strong&gt;&lt;/div&gt;" style="rounded=1;whiteSpace=wrap;html=1;fontSize=11;fillColor=#d5e8d4;strokeColor=#82b366;" vertex="1" parent="_t62vweFFc6r9jnO2GWr-72">
          <mxGeometry x="10" y="40" width="120" height="60" as="geometry" />
        </mxCell>
        <mxCell id="_t62vweFFc6r9jnO2GWr-71" value="&lt;strong style=&quot;color: rgb(64, 64, 64); font-family: Inter, system-ui, -apple-system, BlinkMacSystemFont, &amp;quot;Segoe UI&amp;quot;, Roboto, &amp;quot;Noto Sans&amp;quot;, Ubuntu, Cantarell, &amp;quot;Helvetica Neue&amp;quot;, Oxygen, &amp;quot;Open Sans&amp;quot;, sans-serif; text-align: left;&quot;&gt;&lt;strong style=&quot;color: rgb(64, 64, 64);&quot;&gt;Page.&lt;/strong&gt;onShow&lt;/strong&gt;&lt;div style=&quot;text-align: left;&quot;&gt;&lt;font face=&quot;Inter, system-ui, -apple-system, BlinkMacSystemFont, Segoe UI, Roboto, Noto Sans, Ubuntu, Cantarell, Helvetica Neue, Oxygen, Open Sans, sans-serif&quot; color=&quot;#404040&quot;&gt;&lt;b&gt;页面显示时触发&lt;/b&gt;&lt;/font&gt;&lt;/div&gt;" style="whiteSpace=wrap;html=1;fontSize=11;rounded=1;fillColor=#fff2cc;strokeColor=#d6b656;" vertex="1" parent="_t62vweFFc6r9jnO2GWr-72">
          <mxGeometry x="160" y="40" width="120" height="60" as="geometry" />
        </mxCell>
        <mxCell id="_t62vweFFc6r9jnO2GWr-80" value="" style="group" vertex="1" connectable="0" parent="1">
          <mxGeometry x="690" y="710" width="270" height="90" as="geometry" />
        </mxCell>
        <mxCell id="_t62vweFFc6r9jnO2GWr-79" value="&lt;strong style=&quot;color: light-dark(rgb(64, 64, 64), rgb(182, 182, 182)); font-family: Inter, system-ui, -apple-system, BlinkMacSystemFont, &amp;quot;Segoe UI&amp;quot;, Roboto, &amp;quot;Noto Sans&amp;quot;, Ubuntu, Cantarell, &amp;quot;Helvetica Neue&amp;quot;, Oxygen, &amp;quot;Open Sans&amp;quot;, sans-serif; text-align: left;&quot;&gt;&lt;strong style=&quot;color: rgb(64, 64, 64);&quot;&gt;curPage.&lt;/strong&gt;onUnload&lt;/strong&gt;&lt;div style=&quot;color: rgb(0, 0, 0); text-align: left;&quot;&gt;&lt;font face=&quot;Inter, system-ui, -apple-system, BlinkMacSystemFont, Segoe UI, Roboto, Noto Sans, Ubuntu, Cantarell, Helvetica Neue, Oxygen, Open Sans, sans-serif&quot;&gt;&lt;b&gt;页面卸载时触发&lt;/b&gt;&lt;/font&gt;&lt;/div&gt;" style="whiteSpace=wrap;html=1;fontSize=11;rounded=1;fillColor=#fff2cc;strokeColor=#d6b656;labelBackgroundColor=#FFF2CC;" vertex="1" parent="_t62vweFFc6r9jnO2GWr-80">
          <mxGeometry y="30" width="120" height="60" as="geometry" />
        </mxCell>
        <mxCell id="_t62vweFFc6r9jnO2GWr-75" value="" style="edgeStyle=orthogonalEdgeStyle;rounded=0;orthogonalLoop=1;jettySize=auto;html=1;" edge="1" parent="_t62vweFFc6r9jnO2GWr-80">
          <mxGeometry relative="1" as="geometry">
            <mxPoint x="150" y="60" as="targetPoint" />
            <mxPoint x="120.00000000000023" y="60" as="sourcePoint" />
          </mxGeometry>
        </mxCell>
        <mxCell id="_t62vweFFc6r9jnO2GWr-76" value="页面返回：" style="text;html=1;align=center;verticalAlign=middle;whiteSpace=wrap;rounded=0;fontStyle=1" vertex="1" parent="_t62vweFFc6r9jnO2GWr-80">
          <mxGeometry width="70" height="30" as="geometry" />
        </mxCell>
        <mxCell id="_t62vweFFc6r9jnO2GWr-78" value="&lt;strong style=&quot;color: rgb(64, 64, 64); font-family: Inter, system-ui, -apple-system, BlinkMacSystemFont, &amp;quot;Segoe UI&amp;quot;, Roboto, &amp;quot;Noto Sans&amp;quot;, Ubuntu, Cantarell, &amp;quot;Helvetica Neue&amp;quot;, Oxygen, &amp;quot;Open Sans&amp;quot;, sans-serif; text-align: left;&quot;&gt;&lt;strong style=&quot;color: rgb(64, 64, 64);&quot;&gt;oldPage.&lt;/strong&gt;onShow&lt;/strong&gt;&lt;div style=&quot;text-align: left;&quot;&gt;&lt;font face=&quot;Inter, system-ui, -apple-system, BlinkMacSystemFont, Segoe UI, Roboto, Noto Sans, Ubuntu, Cantarell, Helvetica Neue, Oxygen, Open Sans, sans-serif&quot; color=&quot;#404040&quot;&gt;&lt;b&gt;页面显示时触发&lt;/b&gt;&lt;/font&gt;&lt;/div&gt;" style="whiteSpace=wrap;html=1;fontSize=11;rounded=1;fillColor=#fff2cc;strokeColor=#d6b656;" vertex="1" parent="_t62vweFFc6r9jnO2GWr-80">
          <mxGeometry x="150" y="30" width="120" height="60" as="geometry" />
        </mxCell>
        <mxCell id="_t62vweFFc6r9jnO2GWr-83" value="" style="group" vertex="1" connectable="0" parent="1">
          <mxGeometry x="90" y="10" width="460" height="290" as="geometry" />
        </mxCell>
        <mxCell id="_t62vweFFc6r9jnO2GWr-4" value="&lt;font style=&quot;&quot;&gt;&lt;font style=&quot;color: rgb(0, 0, 0);&quot;&gt;小程序&lt;/font&gt;&lt;span style=&quot;background-color: transparent;&quot;&gt;&lt;font style=&quot;&quot;&gt;&lt;font style=&quot;line-height: 150%;&quot;&gt;&lt;font style=&quot;color: rgb(0, 0, 0);&quot; face=&quot;Inter, system-ui, -apple-system, BlinkMacSystemFont, Segoe UI, Roboto, Noto Sans, Ubuntu, Cantarell, Helvetica Neue, Oxygen, Open Sans, sans-serif&quot;&gt;生命周期&lt;/font&gt;&lt;br&gt;&lt;div&gt;&lt;font style=&quot;font-size: 10px; line-height: 150%; font-weight: normal;&quot; face=&quot;Inter, system-ui, -apple-system, BlinkMacSystemFont, Segoe UI, Roboto, Noto Sans, Ubuntu, Cantarell, Helvetica Neue, Oxygen, Open Sans, sans-serif&quot;&gt;onLaunch: 小程序初始化时触发，全局只触发一次，常用于获取用户信息、登录等操作。&lt;/font&gt;&lt;/div&gt;&lt;div&gt;&lt;font style=&quot;font-size: 10px; line-height: 150%; font-weight: normal;&quot; face=&quot;Inter, system-ui, -apple-system, BlinkMacSystemFont, Segoe UI, Roboto, Noto Sans, Ubuntu, Cantarell, Helvetica Neue, Oxygen, Open Sans, sans-serif&quot;&gt;onShow: 小程序启动或从后台进入前台时触发，可用于重新获取数据或更新页面。&lt;/font&gt;&lt;/div&gt;&lt;div&gt;&lt;font style=&quot;font-size: 10px; line-height: 150%; font-weight: normal;&quot; face=&quot;Inter, system-ui, -apple-system, BlinkMacSystemFont, Segoe UI, Roboto, Noto Sans, Ubuntu, Cantarell, Helvetica Neue, Oxygen, Open Sans, sans-serif&quot;&gt;onHide: 小程序从前台进入后台时触发，适合执行数据保存等操作。&lt;/font&gt;&lt;/div&gt;&lt;div&gt;&lt;font style=&quot;font-size: 10px; line-height: 150%; font-weight: normal;&quot; face=&quot;Inter, system-ui, -apple-system, BlinkMacSystemFont, Segoe UI, Roboto, Noto Sans, Ubuntu, Cantarell, Helvetica Neue, Oxygen, Open Sans, sans-serif&quot;&gt;onError: 小程序发生脚本错误或 API 调用失败时触发，用于错误监控。&lt;/font&gt;&lt;/div&gt;&lt;div&gt;&lt;font style=&quot;font-size: 10px; line-height: 150%; font-weight: normal;&quot; face=&quot;Inter, system-ui, -apple-system, BlinkMacSystemFont, Segoe UI, Roboto, Noto Sans, Ubuntu, Cantarell, Helvetica Neue, Oxygen, Open Sans, sans-serif&quot;&gt;onPageNotFound: 页面不存在时触发，通常用于跳转到默认页面。&lt;/font&gt;&lt;/div&gt;&lt;/font&gt;&lt;/font&gt;&lt;/span&gt;&lt;/font&gt;" style="rounded=0;whiteSpace=wrap;html=1;fontSize=11;fontStyle=1;align=left;fillColor=#d5e8d4;strokeColor=#82b366;" vertex="1" parent="_t62vweFFc6r9jnO2GWr-83">
          <mxGeometry width="460" height="120" as="geometry" />
        </mxCell>
        <mxCell id="_t62vweFFc6r9jnO2GWr-81" value="" style="group" vertex="1" connectable="0" parent="_t62vweFFc6r9jnO2GWr-83">
          <mxGeometry y="140" width="460" height="150" as="geometry" />
        </mxCell>
        <mxCell id="_t62vweFFc6r9jnO2GWr-3" value="" style="edgeStyle=orthogonalEdgeStyle;rounded=0;orthogonalLoop=1;jettySize=auto;html=1;" edge="1" parent="_t62vweFFc6r9jnO2GWr-81" source="_t62vweFFc6r9jnO2GWr-1" target="_t62vweFFc6r9jnO2GWr-2">
          <mxGeometry relative="1" as="geometry" />
        </mxCell>
        <mxCell id="_t62vweFFc6r9jnO2GWr-1" value="&lt;strong style=&quot;color: rgb(64, 64, 64); font-family: Inter, system-ui, -apple-system, BlinkMacSystemFont, &amp;quot;Segoe UI&amp;quot;, Roboto, &amp;quot;Noto Sans&amp;quot;, Ubuntu, Cantarell, &amp;quot;Helvetica Neue&amp;quot;, Oxygen, &amp;quot;Open Sans&amp;quot;, sans-serif; text-align: left;&quot;&gt;App.onLaunch&lt;/strong&gt;&lt;div&gt;&lt;strong style=&quot;color: rgb(64, 64, 64); font-family: Inter, system-ui, -apple-system, BlinkMacSystemFont, &amp;quot;Segoe UI&amp;quot;, Roboto, &amp;quot;Noto Sans&amp;quot;, Ubuntu, Cantarell, &amp;quot;Helvetica Neue&amp;quot;, Oxygen, &amp;quot;Open Sans&amp;quot;, sans-serif; text-align: left;&quot;&gt;初始化，全局执行一次&lt;/strong&gt;&lt;/div&gt;" style="rounded=1;whiteSpace=wrap;html=1;fontSize=11;fillColor=#d5e8d4;strokeColor=#82b366;" vertex="1" parent="_t62vweFFc6r9jnO2GWr-81">
          <mxGeometry width="120" height="60" as="geometry" />
        </mxCell>
        <mxCell id="_t62vweFFc6r9jnO2GWr-6" value="" style="edgeStyle=orthogonalEdgeStyle;rounded=0;orthogonalLoop=1;jettySize=auto;html=1;" edge="1" parent="_t62vweFFc6r9jnO2GWr-81" source="_t62vweFFc6r9jnO2GWr-2" target="_t62vweFFc6r9jnO2GWr-5">
          <mxGeometry relative="1" as="geometry" />
        </mxCell>
        <mxCell id="_t62vweFFc6r9jnO2GWr-8" value="" style="edgeStyle=orthogonalEdgeStyle;rounded=0;orthogonalLoop=1;jettySize=auto;html=1;dashed=1;" edge="1" parent="_t62vweFFc6r9jnO2GWr-81" source="_t62vweFFc6r9jnO2GWr-2" target="_t62vweFFc6r9jnO2GWr-7">
          <mxGeometry relative="1" as="geometry">
            <Array as="points">
              <mxPoint x="210" y="80" />
              <mxPoint x="150" y="80" />
            </Array>
          </mxGeometry>
        </mxCell>
        <mxCell id="_t62vweFFc6r9jnO2GWr-10" style="edgeStyle=orthogonalEdgeStyle;rounded=0;orthogonalLoop=1;jettySize=auto;html=1;exitX=0.75;exitY=1;exitDx=0;exitDy=0;entryX=0.5;entryY=0;entryDx=0;entryDy=0;dashed=1;" edge="1" parent="_t62vweFFc6r9jnO2GWr-81" source="_t62vweFFc6r9jnO2GWr-2" target="_t62vweFFc6r9jnO2GWr-9">
          <mxGeometry relative="1" as="geometry">
            <Array as="points">
              <mxPoint x="250" y="60" />
              <mxPoint x="250" y="80" />
              <mxPoint x="310" y="80" />
            </Array>
          </mxGeometry>
        </mxCell>
        <mxCell id="_t62vweFFc6r9jnO2GWr-2" value="&lt;strong style=&quot;color: rgb(64, 64, 64); font-family: Inter, system-ui, -apple-system, BlinkMacSystemFont, &amp;quot;Segoe UI&amp;quot;, Roboto, &amp;quot;Noto Sans&amp;quot;, Ubuntu, Cantarell, &amp;quot;Helvetica Neue&amp;quot;, Oxygen, &amp;quot;Open Sans&amp;quot;, sans-serif; text-align: left;&quot;&gt;&lt;strong style=&quot;color: rgb(64, 64, 64);&quot;&gt;App.&lt;/strong&gt;onShow&lt;/strong&gt;&lt;div&gt;&lt;strong style=&quot;color: rgb(64, 64, 64); font-family: Inter, system-ui, -apple-system, BlinkMacSystemFont, &amp;quot;Segoe UI&amp;quot;, Roboto, &amp;quot;Noto Sans&amp;quot;, Ubuntu, Cantarell, &amp;quot;Helvetica Neue&amp;quot;, Oxygen, &amp;quot;Open Sans&amp;quot;, sans-serif; text-align: left;&quot;&gt;启动时/后台进入时&lt;/strong&gt;&lt;/div&gt;" style="rounded=1;whiteSpace=wrap;html=1;fontSize=11;fillColor=#d5e8d4;strokeColor=#82b366;" vertex="1" parent="_t62vweFFc6r9jnO2GWr-81">
          <mxGeometry x="170" width="120" height="60" as="geometry" />
        </mxCell>
        <mxCell id="_t62vweFFc6r9jnO2GWr-5" value="&lt;strong style=&quot;color: rgb(64, 64, 64); font-family: Inter, system-ui, -apple-system, BlinkMacSystemFont, &amp;quot;Segoe UI&amp;quot;, Roboto, &amp;quot;Noto Sans&amp;quot;, Ubuntu, Cantarell, &amp;quot;Helvetica Neue&amp;quot;, Oxygen, &amp;quot;Open Sans&amp;quot;, sans-serif; text-align: left;&quot;&gt;&lt;strong style=&quot;color: rgb(64, 64, 64);&quot;&gt;App.&lt;/strong&gt;onHide&lt;/strong&gt;&lt;div&gt;&lt;strong style=&quot;color: rgb(64, 64, 64); font-family: Inter, system-ui, -apple-system, BlinkMacSystemFont, &amp;quot;Segoe UI&amp;quot;, Roboto, &amp;quot;Noto Sans&amp;quot;, Ubuntu, Cantarell, &amp;quot;Helvetica Neue&amp;quot;, Oxygen, &amp;quot;Open Sans&amp;quot;, sans-serif; text-align: left;&quot;&gt;进入&lt;/strong&gt;&lt;strong style=&quot;background-color: transparent; color: rgb(64, 64, 64); font-family: Inter, system-ui, -apple-system, BlinkMacSystemFont, &amp;quot;Segoe UI&amp;quot;, Roboto, &amp;quot;Noto Sans&amp;quot;, Ubuntu, Cantarell, &amp;quot;Helvetica Neue&amp;quot;, Oxygen, &amp;quot;Open Sans&amp;quot;, sans-serif; text-align: left;&quot;&gt;后台&lt;/strong&gt;&lt;strong style=&quot;background-color: transparent; color: rgb(64, 64, 64); font-family: Inter, system-ui, -apple-system, BlinkMacSystemFont, &amp;quot;Segoe UI&amp;quot;, Roboto, &amp;quot;Noto Sans&amp;quot;, Ubuntu, Cantarell, &amp;quot;Helvetica Neue&amp;quot;, Oxygen, &amp;quot;Open Sans&amp;quot;, sans-serif; text-align: left;&quot;&gt;时&lt;/strong&gt;&lt;/div&gt;" style="whiteSpace=wrap;html=1;fontSize=11;rounded=1;fillColor=#d5e8d4;strokeColor=#82b366;" vertex="1" parent="_t62vweFFc6r9jnO2GWr-81">
          <mxGeometry x="340" width="120" height="60" as="geometry" />
        </mxCell>
        <mxCell id="_t62vweFFc6r9jnO2GWr-7" value="&lt;strong style=&quot;color: rgb(64, 64, 64); font-family: Inter, system-ui, -apple-system, BlinkMacSystemFont, &amp;quot;Segoe UI&amp;quot;, Roboto, &amp;quot;Noto Sans&amp;quot;, Ubuntu, Cantarell, &amp;quot;Helvetica Neue&amp;quot;, Oxygen, &amp;quot;Open Sans&amp;quot;, sans-serif; text-align: left;&quot;&gt;&lt;strong style=&quot;color: rgb(64, 64, 64);&quot;&gt;App.&lt;/strong&gt;onError&lt;/strong&gt;&lt;div style=&quot;text-align: left;&quot;&gt;&lt;font face=&quot;Inter, system-ui, -apple-system, BlinkMacSystemFont, Segoe UI, Roboto, Noto Sans, Ubuntu, Cantarell, Helvetica Neue, Oxygen, Open Sans, sans-serif&quot; color=&quot;#404040&quot;&gt;&lt;b&gt;发生异常时&lt;/b&gt;&lt;/font&gt;&lt;/div&gt;" style="whiteSpace=wrap;html=1;fontSize=11;rounded=1;" vertex="1" parent="_t62vweFFc6r9jnO2GWr-81">
          <mxGeometry x="90" y="90" width="120" height="60" as="geometry" />
        </mxCell>
        <mxCell id="_t62vweFFc6r9jnO2GWr-9" value="&lt;strong style=&quot;color: rgb(64, 64, 64); font-family: Inter, system-ui, -apple-system, BlinkMacSystemFont, &amp;quot;Segoe UI&amp;quot;, Roboto, &amp;quot;Noto Sans&amp;quot;, Ubuntu, Cantarell, &amp;quot;Helvetica Neue&amp;quot;, Oxygen, &amp;quot;Open Sans&amp;quot;, sans-serif; text-align: left;&quot;&gt;&lt;strong style=&quot;color: rgb(64, 64, 64);&quot;&gt;App.&lt;/strong&gt;onPageNotFound&lt;/strong&gt;&lt;div style=&quot;text-align: left;&quot;&gt;&lt;font face=&quot;Inter, system-ui, -apple-system, BlinkMacSystemFont, Segoe UI, Roboto, Noto Sans, Ubuntu, Cantarell, Helvetica Neue, Oxygen, Open Sans, sans-serif&quot; color=&quot;#404040&quot;&gt;&lt;b&gt;页面未找到，重定向&lt;/b&gt;&lt;/font&gt;&lt;/div&gt;" style="whiteSpace=wrap;html=1;fontSize=11;rounded=1;" vertex="1" parent="_t62vweFFc6r9jnO2GWr-81">
          <mxGeometry x="250" y="90" width="120" height="60" as="geometry" />
        </mxCell>
        <mxCell id="_t62vweFFc6r9jnO2GWr-84" value="" style="group" vertex="1" connectable="0" parent="1">
          <mxGeometry x="90" y="330" width="720" height="200" as="geometry" />
        </mxCell>
        <mxCell id="_t62vweFFc6r9jnO2GWr-25" value="&lt;font style=&quot;&quot;&gt;&lt;font style=&quot;color: rgb(0, 0, 0);&quot;&gt;小程序页面&lt;/font&gt;&lt;span style=&quot;background-color: transparent;&quot;&gt;&lt;font style=&quot;&quot;&gt;&lt;font style=&quot;line-height: 150%;&quot;&gt;&lt;font style=&quot;color: rgb(0, 0, 0);&quot; face=&quot;Inter, system-ui, -apple-system, BlinkMacSystemFont, Segoe UI, Roboto, Noto Sans, Ubuntu, Cantarell, Helvetica Neue, Oxygen, Open Sans, sans-serif&quot;&gt;生命周期&lt;/font&gt;&lt;/font&gt;&lt;/font&gt;&lt;/span&gt;&lt;/font&gt;&lt;div&gt;&lt;font style=&quot;&quot;&gt;&lt;span style=&quot;background-color: transparent;&quot;&gt;&lt;font style=&quot;&quot;&gt;&lt;font style=&quot;line-height: 150%;&quot;&gt;&lt;div&gt;&lt;div&gt;&lt;font face=&quot;Inter, system-ui, -apple-system, BlinkMacSystemFont, Segoe UI, Roboto, Noto Sans, Ubuntu, Cantarell, Helvetica Neue, Oxygen, Open Sans, sans-serif&quot;&gt;&lt;span style=&quot;font-size: 10px; font-weight: 400;&quot;&gt;onLoad: 页面加载时触发，接收页面参数，适合初始化数据。&lt;/span&gt;&lt;/font&gt;&lt;/div&gt;&lt;div&gt;&lt;font face=&quot;Inter, system-ui, -apple-system, BlinkMacSystemFont, Segoe UI, Roboto, Noto Sans, Ubuntu, Cantarell, Helvetica Neue, Oxygen, Open Sans, sans-serif&quot;&gt;&lt;span style=&quot;font-size: 10px; font-weight: 400;&quot;&gt;onShow: 页面显示时触发，每次页面显示都会调用。&lt;/span&gt;&lt;/font&gt;&lt;/div&gt;&lt;div&gt;&lt;font face=&quot;Inter, system-ui, -apple-system, BlinkMacSystemFont, Segoe UI, Roboto, Noto Sans, Ubuntu, Cantarell, Helvetica Neue, Oxygen, Open Sans, sans-serif&quot;&gt;&lt;span style=&quot;font-size: 10px; font-weight: 400;&quot;&gt;onReady: 页面初次渲染完成时触发，表示页面已准备好，可与视图层交互。&lt;/span&gt;&lt;/font&gt;&lt;/div&gt;&lt;div&gt;&lt;font face=&quot;Inter, system-ui, -apple-system, BlinkMacSystemFont, Segoe UI, Roboto, Noto Sans, Ubuntu, Cantarell, Helvetica Neue, Oxygen, Open Sans, sans-serif&quot;&gt;&lt;span style=&quot;font-size: 10px; font-weight: 400;&quot;&gt;onHide: 页面隐藏时触发，如跳转到其他页面或进入后台。&lt;/span&gt;&lt;/font&gt;&lt;/div&gt;&lt;div&gt;&lt;font face=&quot;Inter, system-ui, -apple-system, BlinkMacSystemFont, Segoe UI, Roboto, Noto Sans, Ubuntu, Cantarell, Helvetica Neue, Oxygen, Open Sans, sans-serif&quot;&gt;&lt;span style=&quot;font-size: 10px; font-weight: 400;&quot;&gt;onUnload: 页面卸载时触发，如页面被关闭或跳转到其他页面。&lt;/span&gt;&lt;/font&gt;&lt;/div&gt;&lt;/div&gt;&lt;/font&gt;&lt;/font&gt;&lt;/span&gt;&lt;/font&gt;&lt;/div&gt;" style="rounded=0;whiteSpace=wrap;html=1;fontSize=11;fontStyle=1;align=left;fillColor=#fff2cc;strokeColor=#d6b656;" vertex="1" parent="_t62vweFFc6r9jnO2GWr-84">
          <mxGeometry width="460" height="120" as="geometry" />
        </mxCell>
        <mxCell id="_t62vweFFc6r9jnO2GWr-82" value="" style="group" vertex="1" connectable="0" parent="_t62vweFFc6r9jnO2GWr-84">
          <mxGeometry y="140" width="720" height="60" as="geometry" />
        </mxCell>
        <mxCell id="_t62vweFFc6r9jnO2GWr-14" value="" style="edgeStyle=orthogonalEdgeStyle;rounded=0;orthogonalLoop=1;jettySize=auto;html=1;" edge="1" parent="_t62vweFFc6r9jnO2GWr-82" source="_t62vweFFc6r9jnO2GWr-12" target="_t62vweFFc6r9jnO2GWr-13">
          <mxGeometry relative="1" as="geometry" />
        </mxCell>
        <mxCell id="_t62vweFFc6r9jnO2GWr-12" value="&lt;strong style=&quot;color: rgb(64, 64, 64); font-family: Inter, system-ui, -apple-system, BlinkMacSystemFont, &amp;quot;Segoe UI&amp;quot;, Roboto, &amp;quot;Noto Sans&amp;quot;, Ubuntu, Cantarell, &amp;quot;Helvetica Neue&amp;quot;, Oxygen, &amp;quot;Open Sans&amp;quot;, sans-serif; text-align: left;&quot;&gt;Page.onLoad&lt;/strong&gt;&lt;div style=&quot;text-align: left;&quot;&gt;&lt;font face=&quot;Inter, system-ui, -apple-system, BlinkMacSystemFont, Segoe UI, Roboto, Noto Sans, Ubuntu, Cantarell, Helvetica Neue, Oxygen, Open Sans, sans-serif&quot; color=&quot;#404040&quot;&gt;&lt;b&gt;加载完成触发&lt;/b&gt;&lt;/font&gt;&lt;/div&gt;" style="rounded=1;whiteSpace=wrap;html=1;fontSize=11;fillColor=#fff2cc;strokeColor=#d6b656;" vertex="1" parent="_t62vweFFc6r9jnO2GWr-82">
          <mxGeometry width="120" height="60" as="geometry" />
        </mxCell>
        <mxCell id="_t62vweFFc6r9jnO2GWr-16" value="" style="edgeStyle=orthogonalEdgeStyle;rounded=0;orthogonalLoop=1;jettySize=auto;html=1;" edge="1" parent="_t62vweFFc6r9jnO2GWr-82" source="_t62vweFFc6r9jnO2GWr-13" target="_t62vweFFc6r9jnO2GWr-15">
          <mxGeometry relative="1" as="geometry" />
        </mxCell>
        <mxCell id="_t62vweFFc6r9jnO2GWr-13" value="&lt;strong style=&quot;color: rgb(64, 64, 64); font-family: Inter, system-ui, -apple-system, BlinkMacSystemFont, &amp;quot;Segoe UI&amp;quot;, Roboto, &amp;quot;Noto Sans&amp;quot;, Ubuntu, Cantarell, &amp;quot;Helvetica Neue&amp;quot;, Oxygen, &amp;quot;Open Sans&amp;quot;, sans-serif; text-align: left;&quot;&gt;&lt;strong style=&quot;color: rgb(64, 64, 64);&quot;&gt;Page.&lt;/strong&gt;onShow&lt;/strong&gt;&lt;div style=&quot;text-align: left;&quot;&gt;&lt;font face=&quot;Inter, system-ui, -apple-system, BlinkMacSystemFont, Segoe UI, Roboto, Noto Sans, Ubuntu, Cantarell, Helvetica Neue, Oxygen, Open Sans, sans-serif&quot; color=&quot;#404040&quot;&gt;&lt;b&gt;页面显示时触发&lt;/b&gt;&lt;/font&gt;&lt;/div&gt;" style="whiteSpace=wrap;html=1;fontSize=11;rounded=1;fillColor=#fff2cc;strokeColor=#d6b656;" vertex="1" parent="_t62vweFFc6r9jnO2GWr-82">
          <mxGeometry x="150" width="120" height="60" as="geometry" />
        </mxCell>
        <mxCell id="_t62vweFFc6r9jnO2GWr-20" value="" style="edgeStyle=orthogonalEdgeStyle;rounded=0;orthogonalLoop=1;jettySize=auto;html=1;dashed=1;" edge="1" parent="_t62vweFFc6r9jnO2GWr-82" source="_t62vweFFc6r9jnO2GWr-15" target="_t62vweFFc6r9jnO2GWr-19">
          <mxGeometry relative="1" as="geometry" />
        </mxCell>
        <mxCell id="_t62vweFFc6r9jnO2GWr-15" value="&lt;strong style=&quot;forced-color-adjust: none; font-size: 11px; font-style: normal; font-variant-ligatures: normal; font-variant-caps: normal; letter-spacing: normal; orphans: 2; text-indent: 0px; text-transform: none; widows: 2; word-spacing: 0px; -webkit-text-stroke-width: 0px; white-space: normal; text-decoration-thickness: initial; text-decoration-style: initial; text-decoration-color: initial; color: light-dark(rgb(64, 64, 64), rgb(182, 182, 182)); font-family: Inter, system-ui, -apple-system, BlinkMacSystemFont, &amp;quot;Segoe UI&amp;quot;, Roboto, &amp;quot;Noto Sans&amp;quot;, Ubuntu, Cantarell, &amp;quot;Helvetica Neue&amp;quot;, Oxygen, &amp;quot;Open Sans&amp;quot;, sans-serif; text-align: left;&quot;&gt;&lt;strong style=&quot;forced-color-adjust: none; color: rgb(64, 64, 64);&quot;&gt;Page.&lt;/strong&gt;onReady&lt;/strong&gt;&lt;div style=&quot;forced-color-adjust: none; font-size: 11px; font-style: normal; font-variant-ligatures: normal; font-variant-caps: normal; letter-spacing: normal; orphans: 2; text-indent: 0px; text-transform: none; widows: 2; word-spacing: 0px; -webkit-text-stroke-width: 0px; white-space: normal; text-decoration-thickness: initial; text-decoration-style: initial; text-decoration-color: initial; text-align: left; color: rgb(0, 0, 0);&quot;&gt;&lt;font color=&quot;#404040&quot; face=&quot;Inter, system-ui, -apple-system, BlinkMacSystemFont, Segoe UI, Roboto, Noto Sans, Ubuntu, Cantarell, Helvetica Neue, Oxygen, Open Sans, sans-serif&quot;&gt;&lt;b style=&quot;&quot;&gt;初次渲染完触发&lt;/b&gt;&lt;/font&gt;&lt;/div&gt;" style="whiteSpace=wrap;html=1;fontSize=11;rounded=1;fillColor=#fff2cc;strokeColor=#d6b656;labelBackgroundColor=#FFF2CC;" vertex="1" parent="_t62vweFFc6r9jnO2GWr-82">
          <mxGeometry x="300" width="120" height="60" as="geometry" />
        </mxCell>
        <mxCell id="_t62vweFFc6r9jnO2GWr-24" value="" style="edgeStyle=orthogonalEdgeStyle;rounded=0;orthogonalLoop=1;jettySize=auto;html=1;dashed=1;" edge="1" parent="_t62vweFFc6r9jnO2GWr-82" source="_t62vweFFc6r9jnO2GWr-19" target="_t62vweFFc6r9jnO2GWr-23">
          <mxGeometry relative="1" as="geometry" />
        </mxCell>
        <mxCell id="_t62vweFFc6r9jnO2GWr-19" value="&lt;strong style=&quot;color: light-dark(rgb(64, 64, 64), rgb(182, 182, 182)); font-family: Inter, system-ui, -apple-system, BlinkMacSystemFont, &amp;quot;Segoe UI&amp;quot;, Roboto, &amp;quot;Noto Sans&amp;quot;, Ubuntu, Cantarell, &amp;quot;Helvetica Neue&amp;quot;, Oxygen, &amp;quot;Open Sans&amp;quot;, sans-serif; text-align: left;&quot;&gt;&lt;strong style=&quot;color: rgb(64, 64, 64);&quot;&gt;Page.&lt;/strong&gt;onHide&lt;/strong&gt;&lt;div style=&quot;color: rgb(0, 0, 0); text-align: left;&quot;&gt;&lt;font face=&quot;Inter, system-ui, -apple-system, BlinkMacSystemFont, Segoe UI, Roboto, Noto Sans, Ubuntu, Cantarell, Helvetica Neue, Oxygen, Open Sans, sans-serif&quot;&gt;&lt;b&gt;页面隐藏时触发&lt;/b&gt;&lt;/font&gt;&lt;/div&gt;" style="whiteSpace=wrap;html=1;fontSize=11;rounded=1;fillColor=#fff2cc;strokeColor=#d6b656;labelBackgroundColor=#FFF2CC;" vertex="1" parent="_t62vweFFc6r9jnO2GWr-82">
          <mxGeometry x="450" width="120" height="60" as="geometry" />
        </mxCell>
        <mxCell id="_t62vweFFc6r9jnO2GWr-23" value="&lt;strong style=&quot;color: light-dark(rgb(64, 64, 64), rgb(182, 182, 182)); font-family: Inter, system-ui, -apple-system, BlinkMacSystemFont, &amp;quot;Segoe UI&amp;quot;, Roboto, &amp;quot;Noto Sans&amp;quot;, Ubuntu, Cantarell, &amp;quot;Helvetica Neue&amp;quot;, Oxygen, &amp;quot;Open Sans&amp;quot;, sans-serif; text-align: left;&quot;&gt;&lt;strong style=&quot;color: rgb(64, 64, 64);&quot;&gt;Page.&lt;/strong&gt;onUnload&lt;/strong&gt;&lt;div style=&quot;color: rgb(0, 0, 0); text-align: left;&quot;&gt;&lt;font face=&quot;Inter, system-ui, -apple-system, BlinkMacSystemFont, Segoe UI, Roboto, Noto Sans, Ubuntu, Cantarell, Helvetica Neue, Oxygen, Open Sans, sans-serif&quot;&gt;&lt;b&gt;页面卸载时触发&lt;/b&gt;&lt;/font&gt;&lt;/div&gt;" style="whiteSpace=wrap;html=1;fontSize=11;rounded=1;fillColor=#fff2cc;strokeColor=#d6b656;labelBackgroundColor=#FFF2CC;" vertex="1" parent="_t62vweFFc6r9jnO2GWr-82">
          <mxGeometry x="600" width="120" height="60" as="geometry" />
        </mxCell>
      </root>
    </mxGraphModel>
  </diagram>
</mxfile>
